<?xml version="1.0" standalone="no"?>
<!DOCTYPE svg PUBLIC "-//W3C//DTD SVG 20010904//EN"
 "http://www.w3.org/TR/2001/REC-SVG-20010904/DTD/svg10.dtd">
<svg version="1.0" xmlns="http://www.w3.org/2000/svg"
 width="200.000000pt" height="200.000000pt" viewBox="0 0 200.000000 200.000000"
 preserveAspectRatio="xMidYMid meet">
<metadata>
Created by potrace 1.16, written by Peter Selinger 2001-2019
</metadata>
<g transform="translate(0.000000,200.000000) scale(0.100000,-0.100000)"
fill="#FFF" stroke="none">
<path d="M1052 1823 c-12 -22 8 -167 25 -184 7 -7 22 -9 39 -5 l27 7 -6 86
c-3 47 -11 91 -18 99 -16 20 -56 17 -67 -3z"/>
<path d="M1235 1739 c-38 -74 -41 -105 -14 -122 28 -17 47 -1 84 72 38 77 43
106 19 115 -41 16 -54 6 -89 -65z"/>
<path d="M850 1750 c-13 -24 -11 -28 53 -103 40 -47 55 -57 76 -55 46 5 39 44
-20 116 -55 67 -89 80 -109 42z"/>
<path d="M1367 1632 c-76 -61 -84 -75 -57 -102 24 -24 36 -20 115 42 62 49 68
59 49 86 -22 32 -42 27 -107 -26z"/>
<path d="M578 1649 c-28 -11 -58 -62 -58 -101 0 -19 69 -92 309 -323 170 -164
312 -308 315 -319 25 -91 -13 -159 -99 -181 -48 -12 -50 -14 -55 -52 -11 -74
-65 -123 -135 -123 -22 0 -25 -4 -25 -37 0 -48 -33 -102 -70 -116 -17 -6 -30
-17 -30 -24 0 -7 24 -37 53 -67 41 -41 66 -58 107 -70 98 -29 117 -25 335 80
110 52 210 105 222 116 13 12 34 44 48 72 45 90 29 210 -43 332 l-30 52 115
192 c111 186 115 194 110 238 -7 66 -49 102 -116 102 -29 0 -55 -6 -64 -14 -7
-8 -42 -59 -77 -115 -68 -109 -94 -133 -145 -133 -53 0 -63 7 -235 166 -400
369 -370 347 -432 325z"/>
<path d="M669 1191 c-22 -23 -29 -39 -29 -69 0 -37 7 -45 170 -200 165 -158
171 -162 212 -162 64 1 98 36 98 100 0 27 -18 49 -132 159 -205 197 -210 201
-252 201 -28 0 -45 -7 -67 -29z"/>
<path d="M511 1024 c-25 -21 -31 -33 -31 -67 -1 -41 2 -45 167 -204 167 -161
168 -162 214 -163 61 0 89 28 89 92 0 44 -2 48 -97 140 -212 205 -239 228
-277 228 -23 0 -45 -9 -65 -26z"/>
<path d="M385 805 c-18 -17 -25 -35 -25 -62 1 -36 10 -46 151 -182 138 -133
153 -144 189 -145 25 0 46 6 59 18 23 21 37 77 24 99 -4 8 -74 79 -155 156
-133 128 -151 141 -183 141 -25 0 -44 -8 -60 -25z"/>
</g>
</svg>
