<?xml version="1.0" standalone="no"?>
<!DOCTYPE svg PUBLIC "-//W3C//DTD SVG 20010904//EN"
 "http://www.w3.org/TR/2001/REC-SVG-20010904/DTD/svg10.dtd">
<svg version="1.0" xmlns="http://www.w3.org/2000/svg"
 width="225.000000pt" height="225.000000pt" viewBox="0 0 225.000000 225.000000"
 preserveAspectRatio="xMidYMid meet">
<metadata>
Created by potrace 1.16, written by Peter Selinger 2001-2019
</metadata>
<g transform="translate(0.000000,225.000000) scale(0.100000,-0.100000)"
fill="#FFF" stroke="none">
<path d="M431 1686 c-7 -8 -11 -27 -9 -42 4 -38 23 -42 194 -43 l141 -1 57
-207 c128 -461 168 -599 182 -620 10 -16 26 -23 56 -25 l43 -3 6 -69 c5 -62 9
-72 39 -99 29 -26 39 -29 80 -25 27 3 61 15 80 28 37 27 69 90 70 138 l0 33
102 -3 102 -3 -2 -46 c-4 -57 18 -112 52 -135 35 -22 103 -15 146 16 37 26 69
90 70 137 l0 32 62 3 62 3 28 70 c16 39 76 200 134 358 112 308 114 319 58
333 -14 4 -286 5 -605 2 -672 -5 -622 4 -600 -100 16 -78 60 -219 73 -235 8
-10 100 -13 399 -13 299 0 389 -3 389 -12 0 -7 -7 -32 -16 -55 l-17 -43 -345
0 c-317 0 -346 -1 -358 -17 -19 -25 -17 -47 4 -66 17 -15 58 -17 385 -17 311
0 368 2 381 15 16 16 69 147 88 219 20 77 39 73 -430 82 l-412 7 -15 50 c-8
28 -15 57 -15 64 0 11 94 13 505 13 l505 0 -39 -107 c-21 -60 -67 -186 -101
-280 l-63 -173 -413 0 -413 0 -15 53 c-8 28 -46 167 -85 307 -121 440 -129
463 -147 477 -27 20 -377 19 -393 -1z"/>
<path d="M196 1351 c-23 -25 -13 -59 21 -72 32 -12 404 -12 437 1 20 7 26 17
26 38 0 51 -7 52 -245 52 -206 0 -223 -1 -239 -19z"/>
<path d="M34 1065 c-15 -23 -15 -27 0 -49 l16 -25 304 -1 c167 0 323 2 346 6
49 8 70 37 51 73 -12 21 -15 21 -356 21 l-345 0 -16 -25z"/>
</g>
</svg>
