<?xml version="1.0" standalone="no"?>
<!DOCTYPE svg PUBLIC "-//W3C//DTD SVG 20010904//EN"
 "http://www.w3.org/TR/2001/REC-SVG-20010904/DTD/svg10.dtd">
<svg version="1.0" xmlns="http://www.w3.org/2000/svg"
 width="431.000000pt" height="431.000000pt" viewBox="0 0 431.000000 431.000000"
 preserveAspectRatio="xMidYMid meet">
<metadata>
Created by potrace 1.16, written by Peter Selinger 2001-2019
</metadata>
<g transform="translate(0.000000,431.000000) scale(0.100000,-0.100000)"
fill="#FFF" stroke="none">
<path d="M1825 4290 c-443 -68 -841 -265 -1163 -575 -191 -184 -336 -381 -447
-610 -151 -310 -215 -593 -215 -950 0 -357 64 -640 215 -950 313 -644 931
-1091 1643 -1189 148 -21 446 -21 594 0 454 62 867 262 1196 579 191 184 336
381 447 610 151 310 215 593 215 950 0 357 -64 640 -215 950 -313 644 -931
1091 -1643 1189 -159 22 -470 20 -627 -4z m951 -1008 c88 -45 139 -132 150
-254 l7 -78 -47 0 -46 0 0 60 c0 112 -54 191 -145 211 -149 33 -249 -43 -262
-201 l-6 -70 -40 0 -40 0 5 78 c6 94 31 156 88 210 57 56 106 72 210 69 63 -3
96 -9 126 -25z m-696 -372 l0 -40 -554 0 -555 0 -28 -24 -28 -24 0 -682 0
-682 28 -24 28 -24 1120 0 1121 0 29 29 29 29 0 667 c0 487 -3 672 -12 688
-15 28 -38 46 -60 47 -14 0 -18 9 -18 40 0 36 2 40 26 40 41 0 99 -38 123 -80
21 -37 21 -43 21 -732 l0 -695 -23 -34 c-12 -18 -38 -44 -56 -56 l-34 -23
-1147 0 -1147 0 -40 29 c-76 55 -73 27 -73 784 l0 673 23 44 c12 25 37 55 56
67 l34 23 568 0 569 0 0 -40z m970 -335 l0 -325 -410 0 -410 0 0 325 0 325
410 0 410 0 0 -325z m-1522 -127 l-3 -183 -230 0 -230 0 -3 183 -2 182 235 0
235 0 -2 -182z m-68 -398 l0 -40 -200 0 -200 0 0 40 0 40 200 0 200 0 0 -40z
m530 0 l0 -40 -200 0 -200 0 0 40 0 40 200 0 200 0 0 -40z m540 0 l0 -40 -205
0 -205 0 0 40 0 40 205 0 205 0 0 -40z m530 0 l0 -40 -205 0 -205 0 0 40 0 40
205 0 205 0 0 -40z m-1090 -290 l0 -40 -455 0 -455 0 0 40 0 40 455 0 455 0 0
-40z"/>
<path d="M2320 2575 l0 -245 325 0 325 0 0 245 0 245 -325 0 -325 0 0 -245z"/>
<path d="M1150 2450 l0 -100 145 0 145 0 0 100 0 100 -145 0 -145 0 0 -100z"/>
</g>
</svg>
